<svg width="352" height="98" viewBox="0 0 352 98" fill="none" xmlns="http://www.w3.org/2000/svg">
<path d="M351.45 22.1H341.82V31.04H351.45V22.1Z" fill="#9211FF"/>
<path d="M129.39 22.1899H137.23L145.26 60.83H145.63L153.96 26.4799H162.53L170.92 60.83H171.29L178.77 22.1899H186.67L177.37 69.0899H166.18L158.34 37.17H158.22L150.38 69.0899H139.19L129.39 22.1899Z" fill="#1B2848"/>
<path d="M198.52 50.43V54.68H220.41V51.45C220.41 46.38 218.98 42.48 216.13 39.75C213.27 37.01 209.18 35.65 203.87 35.65C200.38 35.65 197.4 36.22 194.91 37.37C192.41 38.54 190.49 40.2 189.13 42.36C187.77 44.52 187.1 47.12 187.1 50.11V55.1C187.1 58.13 187.74 60.7399 189.02 62.8999C190.29 65.0799 192.13 66.72 194.52 67.86C196.92 68.99 199.81 69.56 203.22 69.56C207.72 69.56 211.43 68.67 214.34 66.85C217.26 65.05 219.15 62.48 219.99 59.16L212.64 58.68C212.24 60.46 211.27 61.83 209.75 62.8C208.23 63.79 206.25 64.26 203.83 64.26C201.03 64.26 198.85 63.53 197.3 62.07C195.9 60.77 195.12 58.97 194.98 56.68C194.97 56.52 194.97 56.37 194.97 56.2C194.96 56.1 194.96 55.98 194.96 55.88V54.66H194.97V50.41H194.96V49.92C194.96 49.83 194.96 49.73 194.97 49.63C195.01 47.05 195.81 45.03 197.36 43.56C198.97 42.04 201.2 41.28 204.09 41.28C206.98 41.28 209.09 42.03 210.71 43.54C212.33 45.03 213.13 47.1 213.13 49.74V50.41H198.53L198.52 50.43Z" fill="#1B2848"/>
<path d="M256.34 39.4299C253.88 36.9199 250.36 35.6599 245.83 35.6599C242.67 35.6599 239.91 36.2799 237.56 37.5399C237.4 37.6199 237.25 37.7099 237.11 37.7999V43.5399C238.89 42.1399 241.22 41.4299 244.07 41.4299C246.66 41.4299 248.67 42.2499 250.08 43.8699C251.51 45.49 252.21 47.7799 252.21 50.7399V54.6899C252.21 57.5699 251.51 59.8199 250.08 61.4699C248.67 63.1199 246.66 63.93 244.07 63.93C240.79 63.93 238.21 62.9799 236.34 61.0999C234.47 59.2099 233.54 56.6299 233.54 53.3499V22.1899H225.7V69.0299H232.47V62.8099C233.74 64.8499 235.46 66.4499 237.63 67.6299C240.02 68.9299 242.81 69.5699 246.02 69.5699C250.48 69.5699 253.93 68.31 256.39 65.8C258.84 63.29 260.06 59.7099 260.06 55.0399V50.1799C260.06 45.5099 258.83 41.92 256.35 39.42L256.34 39.4299Z" fill="#1B2848"/>
<path d="M296.96 25.27C294.41 23.01 290.67 21.9 285.77 21.9H267.83V69.46H277.43V28.58H283.44C286.2 28.58 288.22 29.18 289.49 30.34C290.77 31.52 291.41 33.39 291.41 35.94V37.52C291.41 39.92 290.77 41.68 289.49 42.83C288.22 44 286.2 44.57 283.44 44.57H280.99V51.32H285.76C290.62 51.32 294.34 50.22 296.91 48C299.49 45.8 300.77 42.59 300.77 38.42V35.08C300.77 30.79 299.5 27.51 296.95 25.27H296.96Z" fill="#9211FF"/>
<path d="M319.82 69.64C314.63 69.64 310.69 68.81 307.99 67.15C305.29 65.49 303.62 62.85 302.97 59.25L312.94 58.89C313.14 60.67 313.79 61.99 314.89 62.84C315.98 63.69 317.57 64.12 319.63 64.12C321.58 64.12 323.09 63.78 324.16 63.09C325.23 62.4 325.77 61.47 325.77 60.29C325.77 59.24 325.36 58.43 324.55 57.86C323.74 57.29 322.69 56.86 321.39 56.55C320.09 56.25 318.65 55.97 317.07 55.73C315.49 55.49 313.91 55.18 312.33 54.82C310.75 54.45 309.31 53.92 308.01 53.21C306.71 52.5 305.66 51.53 304.85 50.29C304.04 49.05 303.63 47.42 303.63 45.4C303.63 42.2 305 39.76 307.73 38.07C310.47 36.39 314.53 35.55 319.92 35.55C323.2 35.55 326 35.91 328.31 36.64C330.62 37.37 332.44 38.46 333.78 39.92C335.12 41.38 335.97 43.2 336.33 45.39L326.36 45.82C326.24 44.32 325.65 43.17 324.6 42.35C323.55 41.54 322.07 41.13 320.16 41.13C318.25 41.13 316.76 41.47 315.69 42.16C314.62 42.85 314.08 43.8 314.08 45.02C314.08 46.07 314.49 46.9 315.3 47.48C316.11 48.07 317.17 48.51 318.49 48.82C319.81 49.12 321.25 49.4 322.81 49.64C324.37 49.88 325.94 50.19 327.52 50.55C329.1 50.92 330.54 51.46 331.84 52.19C333.14 52.92 334.19 53.9 335 55.14C335.81 56.38 336.22 57.99 336.22 59.97C336.22 63.13 334.83 65.53 332.06 67.17C329.28 68.81 325.2 69.63 319.81 69.63L319.82 69.64Z" fill="#9211FF"/>
<path d="M351.44 36.2H341.83V69.0299H351.44V36.2Z" fill="#9211FF"/>
<path d="M98.3098 9V68.42H73.7798C73.4898 68.42 73.2498 68.62 73.1998 68.9L71.7398 76.72C71.6698 77.08 71.9498 77.42 72.3198 77.42H99.1698C103.66 77.42 107.31 73.78 107.31 69.29V8.14C107.31 3.65 103.67 0 99.1698 0H14.3298C13.6898 0 13.6598 0.51 13.3998 1.25C13.0898 2.13 11.2698 7.53999 11.1798 7.93999C11.1298 8.13999 11.0698 8.92 11.7598 8.92L98.2998 9H98.3098Z" fill="#FFAA24"/>
<path d="M86.0199 90.87V96.82C86.0199 97.03 85.8499 97.2 85.6399 97.2H28.7599C28.5499 97.2 28.3899 97.03 28.3899 96.82V90.87C28.3899 90.66 28.5599 90.5 28.7599 90.5H51.1099V84.62C51.1099 84.44 51.2599 84.29 51.4399 84.29H62.9499C63.1299 84.29 63.2799 84.44 63.2799 84.62V90.5H85.6299C85.8399 90.5 86.0099 90.67 86.0099 90.87H86.0199Z" fill="#FF00FF"/>
<path d="M76.3198 15.32L66.4398 68.42L64.8298 77.05C64.7898 77.28 64.5898 77.43 64.3698 77.43H50.1798C49.9598 77.43 49.7698 77.29 49.7198 77.07L38.8098 34.78H38.6498L28.7698 77.07C28.7198 77.29 28.5298 77.43 28.3098 77.43H14.1198C13.8898 77.43 13.6998 77.28 13.6498 77.05L9.31978 57.48C9.23978 57.12 9.50977 56.79 9.87977 56.79H19.1398C19.4098 56.79 19.6498 56.98 19.7098 57.25L21.7198 66.39H22.2098L32.6998 20.85C32.7498 20.64 32.9398 20.49 33.1598 20.49H43.8598C44.0898 20.49 44.2798 20.64 44.3298 20.85L56.0098 66.39H56.4998L65.7898 15.15C65.8298 14.93 66.0298 14.76 66.2498 14.76H75.8398C76.1398 14.76 76.3798 15.04 76.3198 15.33V15.32Z" fill="#1B2848"/>
<path d="M10.4499 15.13C10.3999 14.91 10.2099 14.75 9.97991 14.75H0.469903C0.169903 14.75 -0.0500958 15.03 0.00990419 15.32L1.9499 24.08C2.0099 24.35 2.2499 24.54 2.5199 24.54H11.8099C12.1799 24.54 12.4399 24.2 12.3699 23.85L10.4499 15.13Z" fill="#9211FF"/>
</svg>
