<svg width="103" height="93" viewBox="0 0 103 93" fill="none" xmlns="http://www.w3.org/2000/svg">
<path d="M93.6808 8.77099V65.3854H70.3049C70.0342 65.3854 69.7983 65.5797 69.7497 65.8434L68.3616 73.2976C68.2991 73.6446 68.5628 73.9639 68.9168 73.9639H94.5067C98.7891 73.9639 102.259 70.4936 102.259 66.2113V7.93812C102.259 3.65578 98.7891 0.185486 94.5067 0.185486H13.6628C13.052 0.185486 13.0243 0.678262 12.7744 1.37232C12.4829 2.20519 10.7478 7.36205 10.6575 7.75072C10.6089 7.94506 10.5534 8.6877 11.2128 8.6877L93.6808 8.76405V8.77099Z" fill="#FFAA24"/>
<path d="M81.973 86.7831V92.4536C81.973 92.6479 81.8134 92.8145 81.6121 92.8145H27.413C27.2187 92.8145 27.0591 92.6549 27.0591 92.4536V86.7831C27.0591 86.5888 27.2187 86.4292 27.413 86.4292H48.7137V80.8212C48.7137 80.6477 48.8595 80.5089 49.026 80.5089H59.9922C60.1657 80.5089 60.3045 80.6546 60.3045 80.8212V86.4292H81.6051C81.7995 86.4292 81.9661 86.5888 81.9661 86.7831H81.973Z" fill="#FF00FF"/>
<path d="M72.7204 14.7884L63.302 65.3922L61.7751 73.6099C61.7404 73.8251 61.553 73.9708 61.3378 73.9708H47.8176C47.6093 73.9708 47.4289 73.832 47.3803 73.6307L36.9902 33.3337H36.8375L27.4261 73.6307C27.3775 73.839 27.204 73.9708 26.9888 73.9708H13.4686C13.2534 73.9708 13.066 73.8251 13.0244 73.6099L8.90168 54.9675C8.82534 54.6274 9.08214 54.3081 9.43611 54.3081H18.2576C18.5144 54.3081 18.7434 54.4886 18.799 54.7454L20.7146 63.4489H21.1796L31.174 20.0563C31.2157 19.8551 31.4031 19.7093 31.6113 19.7093H41.8139C42.0291 19.7093 42.2096 19.8551 42.2581 20.0563L53.3839 63.4489H53.8489L62.7051 14.6149C62.7398 14.4067 62.9272 14.2471 63.1424 14.2471H72.2762C72.5677 14.2471 72.7898 14.5178 72.7273 14.7884H72.7204Z" fill="#1B2848"/>
<path d="M9.95672 14.608C9.91508 14.3998 9.72074 14.2471 9.50558 14.2471H0.448113C0.163549 14.2471 -0.0516072 14.5108 0.0108581 14.7954L1.85705 23.138C1.91258 23.3948 2.14162 23.5752 2.39842 23.5752H11.2546C11.6016 23.5752 11.8584 23.256 11.7821 22.9159L9.94978 14.608H9.95672Z" fill="#9211FF"/>
</svg>
