<svg width="220" height="93" viewBox="0 0 220 93" fill="none" xmlns="http://www.w3.org/2000/svg">
<path d="M144.632 16.7527H144.722L150.525 40.3784H158.805L165.69 5.66162H159.839L154.307 34.2568H154.037L147.825 8.83346H141.481L135.318 34.2568H135.047L129.099 5.66162H123.297L130.55 40.3784H138.83L144.632 16.7527Z" fill="#1B2848"/>
<path d="M171.492 39.483C173.269 40.3159 175.407 40.7393 177.926 40.7393C181.258 40.7393 183.999 40.0799 186.158 38.7335C188.316 37.4009 189.718 35.4991 190.343 33.0422L184.902 32.6882C184.603 34 183.881 35.0202 182.764 35.7421C181.64 36.4708 180.175 36.8248 178.377 36.8248C176.302 36.8248 174.692 36.2904 173.54 35.2007C172.506 34.2429 171.93 32.9103 171.826 31.2099C171.819 31.0919 171.819 30.9808 171.819 30.8559C171.812 30.7796 171.812 30.6963 171.812 30.613V29.7107H171.819V26.5666H171.812V26.1988C171.812 26.1294 171.812 26.053 171.819 25.9905C171.846 24.0819 172.443 22.5827 173.582 21.5C174.768 20.3756 176.42 19.8134 178.558 19.8134C180.696 19.8134 182.264 20.3687 183.458 21.4861C184.659 22.5897 185.249 24.1235 185.249 26.0738V26.5736H174.449V29.7176H190.655V27.3301C190.655 23.5822 189.6 20.6949 187.49 18.6682C185.374 16.6416 182.348 15.6352 178.412 15.6352C175.83 15.6352 173.623 16.0586 171.784 16.9123C169.931 17.7729 168.515 19.0014 167.509 20.6047C166.502 22.2079 166.002 24.1235 166.002 26.3445V30.0369C166.002 32.2787 166.474 34.2082 167.425 35.8115C168.362 37.4217 169.73 38.6432 171.492 39.483Z" fill="#1B2848"/>
<path d="M217.259 18.4253C215.434 16.5653 212.838 15.6352 209.479 15.6352C207.14 15.6352 205.092 16.0933 203.357 17.0233C203.239 17.0789 203.128 17.1483 203.024 17.2177V21.4653C204.336 20.4312 206.064 19.9037 208.174 19.9037C210.089 19.9037 211.582 20.5075 212.623 21.7082C213.678 22.909 214.198 24.6025 214.198 26.7957V29.7246C214.198 31.8554 213.678 33.5211 212.623 34.7427C211.575 35.9642 210.089 36.568 208.174 36.568C205.745 36.568 203.836 35.867 202.455 34.4789C201.074 33.0769 200.379 31.1683 200.379 28.7391V5.67548H194.577V40.3437H199.588V35.7421C200.525 37.2482 201.802 38.435 203.406 39.3096C205.168 40.2674 207.244 40.7463 209.61 40.7463C212.907 40.7463 215.461 39.8162 217.287 37.9562C219.098 36.0961 220.001 33.4448 220.001 29.9953V26.4001C220.001 22.9437 219.091 20.2923 217.259 18.4392V18.4253Z" fill="#1B2848"/>
<path d="M192.598 51.761H185.47V58.3754H192.598V51.761Z" fill="#9211FF"/>
<path d="M152.273 54.1C150.385 52.4273 147.623 51.6083 143.993 51.6083H130.716V86.804H137.823V56.5431H142.272C144.312 56.5431 145.812 56.9873 146.749 57.8479C147.699 58.7224 148.171 60.1036 148.171 61.9914V63.1644C148.171 64.9412 147.699 66.246 146.749 67.0997C145.812 67.9603 144.312 68.3837 142.272 68.3837H140.46V73.3809H143.993C147.588 73.3809 150.344 72.5689 152.246 70.9239C154.154 69.2929 155.105 66.9262 155.105 63.8376V61.3598C155.105 58.181 154.168 55.7588 152.273 54.1Z" fill="#9211FF"/>
<path d="M166.148 66.6068C166.939 66.1002 168.043 65.8434 169.459 65.8434C170.874 65.8434 171.964 66.1418 172.742 66.7457C173.519 67.3495 173.956 68.2032 174.046 69.3137L181.424 69.0013C181.154 67.3842 180.522 66.0308 179.536 64.948C178.544 63.8653 177.197 63.0602 175.49 62.5188C173.783 61.9775 171.707 61.7068 169.278 61.7068C165.287 61.7068 162.282 62.3314 160.255 63.5738C158.229 64.8162 157.215 66.6277 157.215 68.9944C157.215 70.4936 157.514 71.7012 158.118 72.6174C158.715 73.5335 159.499 74.2554 160.457 74.7759C161.414 75.3034 162.483 75.699 163.649 75.9697C164.822 76.2404 165.988 76.4625 167.161 76.6429C168.334 76.8234 169.396 77.0247 170.354 77.2537C171.312 77.4758 172.096 77.802 172.693 78.2184C173.29 78.6418 173.595 79.2387 173.595 80.0161C173.595 80.8836 173.2 81.5777 172.401 82.0844C171.603 82.598 170.486 82.8478 169.049 82.8478C167.522 82.8478 166.349 82.5355 165.537 81.9039C164.725 81.2723 164.246 80.3006 164.101 78.9819L156.723 79.2526C157.202 81.9247 158.437 83.875 160.436 85.1035C162.428 86.332 165.35 86.9497 169.188 86.9497C173.026 86.9497 176.198 86.3389 178.252 85.1243C180.307 83.9097 181.334 82.1329 181.334 79.794C181.334 78.3225 181.036 77.1288 180.432 76.2196C179.828 75.3034 179.051 74.5746 178.093 74.0402C177.135 73.4989 176.066 73.0963 174.9 72.8256C173.727 72.5549 172.568 72.3328 171.416 72.1524C170.264 71.9719 169.195 71.7706 168.223 71.5416C167.245 71.3195 166.46 70.9864 165.863 70.5491C165.26 70.1119 164.961 69.508 164.961 68.7237C164.961 67.8215 165.357 67.1204 166.155 66.6068H166.148Z" fill="#9211FF"/>
<path d="M192.584 62.1927H185.477V86.8943H192.584V62.1927Z" fill="#9211FF"/>
<path d="M93.6808 8.77099V65.3854H70.3049C70.0342 65.3854 69.7983 65.5797 69.7497 65.8434L68.3616 73.2976C68.2991 73.6446 68.5628 73.9639 68.9168 73.9639H94.5067C98.7891 73.9639 102.259 70.4936 102.259 66.2113V7.93812C102.259 3.65578 98.7891 0.185486 94.5067 0.185486H13.6628C13.052 0.185486 13.0243 0.678262 12.7744 1.37232C12.4829 2.20519 10.7478 7.36205 10.6575 7.75072C10.6089 7.94506 10.5534 8.6877 11.2128 8.6877L93.6808 8.76405V8.77099Z" fill="#FFAA24"/>
<path d="M81.973 86.7831V92.4536C81.973 92.6479 81.8134 92.8145 81.6121 92.8145H27.413C27.2187 92.8145 27.0591 92.6549 27.0591 92.4536V86.7831C27.0591 86.5888 27.2187 86.4292 27.413 86.4292H48.7137V80.8212C48.7137 80.6477 48.8595 80.5089 49.026 80.5089H59.9922C60.1657 80.5089 60.3045 80.6546 60.3045 80.8212V86.4292H81.6051C81.7995 86.4292 81.9661 86.5888 81.9661 86.7831H81.973Z" fill="#FF00FF"/>
<path d="M72.7204 14.7884L63.302 65.3922L61.7751 73.6099C61.7404 73.8251 61.553 73.9708 61.3378 73.9708H47.8176C47.6093 73.9708 47.4289 73.832 47.3803 73.6307L36.9902 33.3337H36.8375L27.4261 73.6307C27.3775 73.839 27.204 73.9708 26.9888 73.9708H13.4686C13.2534 73.9708 13.066 73.8251 13.0244 73.6099L8.90168 54.9675C8.82534 54.6274 9.08214 54.3081 9.43611 54.3081H18.2576C18.5144 54.3081 18.7434 54.4886 18.799 54.7454L20.7146 63.4489H21.1796L31.174 20.0563C31.2157 19.8551 31.4031 19.7093 31.6113 19.7093H41.8139C42.0291 19.7093 42.2096 19.8551 42.2581 20.0563L53.3839 63.4489H53.8489L62.7051 14.6149C62.7398 14.4067 62.9272 14.2471 63.1424 14.2471H72.2762C72.5677 14.2471 72.7898 14.5178 72.7273 14.7884H72.7204Z" fill="#1B2848"/>
<path d="M9.95672 14.608C9.91508 14.3998 9.72074 14.2471 9.50558 14.2471H0.448113C0.163549 14.2471 -0.0516072 14.5108 0.0108581 14.7954L1.85705 23.138C1.91258 23.3948 2.14162 23.5752 2.39842 23.5752H11.2546C11.6016 23.5752 11.8584 23.256 11.7821 22.9159L9.94978 14.608H9.95672Z" fill="#9211FF"/>
</svg>
