<svg width="132" height="120" viewBox="0 0 132 120" fill="none" xmlns="http://www.w3.org/2000/svg">
<path d="M120.921 11.0859V84.172H90.744C90.3956 84.172 90.0951 84.4248 90.0268 84.7663L88.2372 94.3836C88.1552 94.8344 88.4967 95.2443 88.9544 95.2443H121.987C127.512 95.2443 132 90.7634 132 85.2376V10.0135C132 4.48763 127.519 0 121.987 0H17.6237C16.8381 0 16.7972 0.635235 16.4761 1.53686C16.0936 2.61607 13.8601 9.26897 13.7439 9.76759C13.6825 10.0135 13.6073 10.9766 14.4611 10.9766L120.914 11.079L120.921 11.0859Z" fill="#FFAA24"/>
<path d="M105.812 111.788V119.11C105.812 119.363 105.607 119.574 105.348 119.574H35.3829C35.1302 119.574 34.9253 119.369 34.9253 119.11V111.788C34.9253 111.535 35.1302 111.33 35.3829 111.33H62.8824V104.097C62.8824 103.878 63.0669 103.694 63.2855 103.694H77.445C77.6704 103.694 77.848 103.878 77.848 104.097V111.33H105.348C105.6 111.33 105.812 111.535 105.812 111.788Z" fill="#FF00FF"/>
<path d="M93.8722 18.8522L81.714 84.172L79.7399 94.7798C79.6921 95.0598 79.4463 95.2443 79.1799 95.2443H61.728C61.4616 95.2443 61.2225 95.0667 61.1611 94.8003L47.746 42.7793H47.5479L35.3965 94.8003C35.335 95.0667 35.1028 95.2443 34.8295 95.2443H17.3777C17.0976 95.2443 16.8585 95.053 16.8039 94.7798L11.483 70.7092C11.3873 70.272 11.7152 69.8554 12.1728 69.8554H23.5661C23.9008 69.8554 24.1945 70.0876 24.2628 70.4155L26.7354 81.6516H27.3433L40.2461 25.6348C40.3008 25.3684 40.5398 25.184 40.8062 25.184H53.9754C54.2554 25.184 54.4877 25.3684 54.5491 25.6348L68.9136 81.6516H69.5147L80.949 18.6131C80.9968 18.3399 81.2427 18.1349 81.5159 18.1349H93.3053C93.681 18.1349 93.9678 18.4833 93.8927 18.8385L93.8722 18.8522Z" fill="#1B2848"/>
<path d="M12.8491 18.6199C12.7876 18.3535 12.5485 18.1554 12.2685 18.1554H0.574707C0.205861 18.1554 -0.0673529 18.4969 0.0146129 18.8658L2.39845 29.6374C2.47359 29.9653 2.76047 30.2044 3.10199 30.2044H14.5362C14.987 30.2044 15.3149 29.7945 15.2193 29.3506L12.8559 18.6267L12.8491 18.6199Z" fill="#9211FF"/>
</svg>
