<svg width="181" height="40" viewBox="0 0 181 40" fill="none" xmlns="http://www.w3.org/2000/svg">
<path d="M180.787 8.36829H175.833V12.9671H180.787V8.36829Z" fill="#9211FF"/>
<path d="M66.5586 8.41455H70.5915L74.7222 28.2911H74.9125L79.1975 10.6213H83.6059L87.9218 28.2911H88.1121L91.9598 8.41455H96.0236L91.2397 32.5401H85.4835L81.4506 16.1203H81.3888L77.3559 32.5401H71.5997L66.5586 8.41455Z" fill="#1B2848"/>
<path d="M102.119 22.9413V25.1275H113.379V23.466C113.379 20.8579 112.644 18.8518 111.178 17.4474C109.707 16.038 107.603 15.3384 104.871 15.3384C103.076 15.3384 101.543 15.6316 100.262 16.2232C98.9761 16.825 97.9885 17.6789 97.2889 18.79C96.5893 19.9011 96.2446 21.2386 96.2446 22.7767V25.3435C96.2446 26.9022 96.5738 28.2448 97.2323 29.3559C97.8856 30.4773 98.8321 31.3209 100.061 31.9073C101.296 32.4886 102.783 32.7818 104.537 32.7818C106.852 32.7818 108.76 32.324 110.257 31.3878C111.759 30.4618 112.731 29.1398 113.163 27.432L109.382 27.1851C109.177 28.1007 108.678 28.8055 107.896 29.3044C107.114 29.8137 106.095 30.0555 104.851 30.0555C103.41 30.0555 102.289 29.6799 101.492 28.9289C100.771 28.2602 100.37 27.3343 100.298 26.1563C100.293 26.074 100.293 25.9968 100.293 25.9094C100.288 25.8579 100.288 25.7962 100.288 25.7448V25.1172H100.293V22.931H100.288V22.6789C100.288 22.6326 100.288 22.5812 100.293 22.5297C100.314 21.2026 100.725 20.1635 101.522 19.4073C102.351 18.6254 103.498 18.2345 104.984 18.2345C106.471 18.2345 107.556 18.6203 108.39 19.397C109.223 20.1635 109.635 21.2283 109.635 22.5863V22.931H102.124L102.119 22.9413Z" fill="#1B2848"/>
<path d="M131.862 17.2829C130.596 15.9917 128.786 15.3436 126.456 15.3436C124.83 15.3436 123.41 15.6625 122.201 16.3106C122.119 16.3518 122.042 16.3981 121.97 16.4444V19.3971C122.886 18.6769 124.084 18.3117 125.55 18.3117C126.882 18.3117 127.916 18.7335 128.642 19.5668C129.377 20.4002 129.737 21.5781 129.737 23.1008V25.1327C129.737 26.6141 129.377 27.7716 128.642 28.6203C127.916 29.4691 126.882 29.8858 125.55 29.8858C123.863 29.8858 122.536 29.3971 121.574 28.43C120.612 27.4578 120.134 26.1306 120.134 24.4434V8.41455H116.101V32.5092H119.583V29.3096C120.236 30.359 121.121 31.182 122.237 31.789C123.467 32.4578 124.902 32.787 126.553 32.787C128.848 32.787 130.622 32.1388 131.888 30.8477C133.148 29.5565 133.775 27.715 133.775 25.3127V22.8127C133.775 20.4104 133.143 18.5637 131.867 17.2777L131.862 17.2829Z" fill="#1B2848"/>
<path d="M152.757 9.99892C151.445 8.83637 149.521 8.26538 147.001 8.26538H137.772V32.7304H142.711V11.7016H145.802C147.222 11.7016 148.261 12.0102 148.914 12.6069C149.573 13.2139 149.902 14.1759 149.902 15.4876V16.3004C149.902 17.5349 149.573 18.4403 148.914 19.0318C148.261 19.6337 147.222 19.9269 145.802 19.9269H144.542V23.3991H146.996C149.496 23.3991 151.409 22.8333 152.731 21.6913C154.058 20.5596 154.717 18.9084 154.717 16.7633V15.0452C154.717 12.8384 154.064 11.1512 152.752 9.99892H152.757Z" fill="#9211FF"/>
<path d="M164.516 32.823C161.847 32.823 159.82 32.396 158.431 31.5421C157.042 30.6882 156.183 29.3302 155.849 27.4783L160.977 27.2932C161.08 28.2088 161.414 28.8878 161.98 29.3251C162.541 29.7623 163.359 29.9835 164.419 29.9835C165.422 29.9835 166.198 29.8086 166.749 29.4537C167.299 29.0987 167.577 28.6203 167.577 28.0133C167.577 27.4732 167.366 27.0565 166.949 26.7633C166.533 26.4701 165.993 26.2489 165.324 26.0895C164.655 25.9351 163.914 25.7911 163.102 25.6677C162.289 25.5442 161.476 25.3847 160.663 25.1995C159.851 25.0092 159.11 24.7366 158.441 24.3714C157.772 24.0061 157.232 23.5072 156.816 22.8693C156.399 22.2314 156.188 21.393 156.188 20.3539C156.188 18.7078 156.893 17.4526 158.297 16.5833C159.707 15.7191 161.795 15.287 164.568 15.287C166.255 15.287 167.695 15.4722 168.884 15.8477C170.072 16.2232 171.008 16.7839 171.697 17.5349C172.387 18.286 172.824 19.2222 173.009 20.3487L167.881 20.5699C167.819 19.7983 167.515 19.2067 166.975 18.7849C166.435 18.3683 165.674 18.1574 164.691 18.1574C163.709 18.1574 162.942 18.3323 162.392 18.6872C161.841 19.0421 161.564 19.5308 161.564 20.1584C161.564 20.6985 161.775 21.1255 162.191 21.4238C162.608 21.7273 163.153 21.9537 163.832 22.1131C164.511 22.2674 165.252 22.4115 166.054 22.5349C166.857 22.6584 167.664 22.8179 168.477 23.003C169.29 23.1934 170.031 23.4711 170.699 23.8467C171.368 24.2222 171.908 24.7263 172.325 25.3642C172.742 26.002 172.953 26.8302 172.953 27.8487C172.953 29.4742 172.238 30.7088 170.813 31.5524C169.383 32.396 167.284 32.8179 164.511 32.8179L164.516 32.823Z" fill="#9211FF"/>
<path d="M180.782 15.6213H175.838V32.5092H180.782V15.6213Z" fill="#9211FF"/>
<path d="M40.3497 3.71997V28.28H30.4008C30.2832 28.28 30.1858 28.3627 30.1655 28.4784L29.5734 31.7107C29.545 31.8595 29.6586 32 29.8086 32H40.6986C42.5196 32 44 30.4955 44 28.6396V3.36451C44 1.50865 42.5237 0 40.6986 0H6.28883C6.02926 0 6.01709 0.210798 5.91164 0.516662C5.78591 0.880393 5.04775 3.1165 5.01125 3.28183C4.99097 3.3645 4.96663 3.6869 5.24649 3.6869L40.3457 3.71997H40.3497Z" fill="#FFAA24"/>
<path d="M35 37.5484V39.8528C35 39.9342 34.9322 40 34.8483 40H12.1477C12.0639 40 12 39.9342 12 39.8528V37.5484C12 37.4671 12.0678 37.4051 12.1477 37.4051H21.0675V35.1278C21.0675 35.0581 21.1274 35 21.1992 35H25.7928C25.8647 35 25.9245 35.0581 25.9245 35.1278V37.4051H34.8444C34.9282 37.4051 34.996 37.4709 34.996 37.5484H35Z" fill="#FF00FF"/>
<path d="M31.293 6.28162L27.242 28.0541L26.5818 31.5926C26.5654 31.6869 26.4834 31.7484 26.3932 31.7484H20.5749C20.4847 31.7484 20.4068 31.691 20.3863 31.6008L15.9129 14.2607H15.8473L11.7962 31.6008C11.7757 31.691 11.6978 31.7484 11.6076 31.7484H5.78935C5.69504 31.7484 5.61714 31.6869 5.59663 31.5926L3.82122 23.5684C3.78841 23.4207 3.89912 23.2854 4.05083 23.2854H7.84768C7.95839 23.2854 8.0568 23.3633 8.0814 23.474L8.90555 27.2217H9.10646L13.4076 8.54907C13.4281 8.46296 13.5061 8.40146 13.5963 8.40146H17.9836C18.0779 8.40146 18.1558 8.46296 18.1763 8.54907L22.9654 27.2217H23.1663L26.9754 6.21191C26.9918 6.12171 27.0739 6.052 27.1641 6.052H31.0962C31.2192 6.052 31.3176 6.16681 31.293 6.28571V6.28162Z" fill="#1B2848"/>
<path d="M4.28474 6.20366C4.26424 6.11345 4.18634 6.04785 4.09203 6.04785H0.192673C0.0696649 6.04785 -0.0205406 6.16266 0.00406099 6.28156L0.799511 9.8734C0.824113 9.98411 0.922519 10.062 1.03323 10.062H4.84238C4.99409 10.062 5.1007 9.9226 5.072 9.77909L4.28474 6.20366Z" fill="#9211FF"/>
</svg>
