<svg xmlns="http://www.w3.org/2000/svg" xmlns:xlink="http://www.w3.org/1999/xlink" xmlns:svgjs="http://svgjs.com/svgjs" width="512" height="512" x="0" y="0" viewBox="0 0 512 512" style="enable-background:new 0 0 512 512" xml:space="preserve" class=""><g><path xmlns="http://www.w3.org/2000/svg" d="m286.773 11.121h-.074l-4.608-.107c-97.2-1.196-178.105 74.361-183.549 171.415-.186 3.047-.265 29.259-.281 35.684l-33.334 87.149c-2.721 7.127.851 15.109 7.978 17.83 1.573.6 3.242.908 4.925.908h46.17v51.568c-.195 24.576 19.569 44.657 44.145 44.852.661.005 1.322-.004 1.983-.028 1-.031 7.223-.392 38.256-.392h.138c6.989.062 13.765 2.418 19.285 6.706 7.681 5.931 12.183 15.083 12.193 24.787v43.507c-.097 3.215 2.43 5.9 5.645 5.997l.144.003h156.832c3.314 0 6-2.686 6-6 0-.115-.003-.231-.01-.346-.061-1.07-6.1-107.771-.016-173.017 1.656-17.755 18.615-60.262 20.12-64 26.977-51.504 25.506-113.275-3.891-163.437-29.033-49.96-80.641-81.018-138.051-83.079zm131.17 241.213c-.089.171-.171.347-.243.526-.782 1.927-19.166 47.424-21.053 67.663-5.3 56.86-1.547 144.342-.348 168.477h-144.299v-37.507c-.001-13.375-6.226-25.988-16.843-34.123-.585-.453-1.238-.885-1.844-1.307 27.453-9.652 46.68-34.522 49.109-63.521.271-3.305-2.188-6.204-5.493-6.475s-6.204 2.188-6.475 5.493c-2.614 31.825-29.706 56.683-61.727 56.683-.076 0-.16 0-.231 0l-38.829.305c-18.073.514-33.141-13.72-33.655-31.793-.011-.396-.015-.791-.012-1.187v-57.584c-.169-3.376-2.973-6.017-6.353-5.984h-51.817c-.602.007-1.167-.291-1.5-.792-.341-.483-.417-1.105-.2-1.655l33.726-88.179c.261-.68.397-1.402.4-2.13.031-13.29.127-33.867.264-36.125 5.033-89.889 79.423-160.181 169.452-160.119.636 0 6.412.111 6.412.111 26.862.801 53.029 8.724 75.824 22.957 69.432 43.767 93.675 133.48 55.738 206.262z" fill="#66a1d3" data-original="#000000" style=""></path><path xmlns="http://www.w3.org/2000/svg" d="m390.042 154.839-22.042-3.886c-1.466-4.923-3.333-9.718-5.583-14.336l13.623-18.927c1.718-2.386 1.453-5.666-.625-7.746l-28.573-28.6c-2.066-2.068-5.322-2.345-7.709-.657l-18.953 13.413c-4.632-2.274-9.441-4.166-14.38-5.657l-3.884-22.465c-.498-2.878-2.995-4.98-5.916-4.978h-40.56c-2.917 0-5.411 2.098-5.911 4.972l-3.909 22.481c-4.955 1.542-9.776 3.485-14.415 5.81l-18.994-13.481c-2.382-1.691-5.636-1.42-7.706.641l-28.682 28.553c-2.078 2.069-2.356 5.338-.657 7.728l13.43 18.9c-2.326 4.616-4.28 9.41-5.843 14.337l-22.765 3.894c-2.881.493-4.988 2.99-4.988 5.913v40.441c0 2.923 2.105 5.42 4.986 5.914l22.771 3.9c1.582 4.934 3.558 9.733 5.907 14.351l-13.464 18.919c-1.7 2.389-1.425 5.656.651 7.727l28.664 28.6c2.066 2.062 5.316 2.338 7.7.654l19-13.414c4.643 2.277 9.462 4.179 14.409 5.687l3.9 22.5c.5 2.876 2.997 4.975 5.916 4.973h40.56c2.918 0 5.412-2.099 5.911-4.974l3.91-22.515c4.951-1.555 9.771-3.502 14.413-5.823l19 13.475c2.382 1.69 5.636 1.419 7.706-.642l28.681-28.557c2.078-2.069 2.356-5.337.657-7.727l-13.46-18.937c2.13-4.624 3.873-9.416 5.212-14.327l22.009-3.872c2.87-.505 4.962-2.998 4.961-5.912v-40.441c0-2.912-2.09-5.403-4.958-5.909zm-7.042 41.313-20.747 3.65c-2.272.399-4.113 2.066-4.737 4.286-2.047 7.285-3.858 13.29-6.938 18.746-1.143 2.026-1.013 4.529.335 6.425l12.639 17.787-21.5 21.405-17.89-12.691c-1.891-1.341-4.385-1.473-6.407-.339-5.944 3.29-12.263 5.85-18.821 7.623-2.23.622-3.904 2.472-4.3 4.753l-3.68 21.203h-30.465l-3.678-21.2c-.396-2.281-2.07-4.131-4.3-4.753-6.55-1.718-12.866-4.225-18.811-7.467-2.019-1.134-4.509-1.005-6.4.331l-17.88 12.624-21.493-21.443 12.673-17.81c1.349-1.896 1.481-4.401.337-6.428-3.318-5.92-5.913-12.217-7.731-18.756-.627-2.229-2.48-3.899-4.763-4.29l-21.443-3.678v-30.322l21.441-3.668c2.284-.39 4.138-2.061 4.765-4.291 1.795-6.532 4.366-12.825 7.658-18.745 1.143-2.026 1.013-4.529-.335-6.425l-12.637-17.779 21.5-21.4 17.89 12.7c1.891 1.342 4.386 1.475 6.409.34 5.944-3.285 12.264-5.839 18.821-7.608 2.23-.622 3.903-2.47 4.3-4.751l3.675-21.181h30.463l3.659 21.167c.395 2.283 2.068 4.134 4.3 4.757 6.542 1.709 12.853 4.205 18.794 7.433 2.019 1.132 4.51 1.002 6.4-.335l17.827-12.613 21.391 21.409-12.821 17.809c-1.367 1.898-1.506 4.418-.356 6.455 3.214 5.927 5.689 12.226 7.37 18.756.624 2.22 2.464 3.885 4.734 4.286l20.752 3.658z" fill="#66a1d3" data-original="#000000" style=""></path><path xmlns="http://www.w3.org/2000/svg" d="m314.256 180.968c.054-21.304-17.173-38.617-38.477-38.671s-38.617 17.173-38.671 38.477 17.173 38.617 38.477 38.671h.097c21.267.002 38.523-17.21 38.574-38.477zm-65.148 0c-.054-14.676 11.801-26.617 26.477-26.671s26.617 11.801 26.671 26.477-11.801 26.617-26.477 26.671c-.032 0-.065 0-.097 0-14.643.01-26.53-11.834-26.574-26.477z" fill="#66a1d3" data-original="#000000" style=""></path><path xmlns="http://www.w3.org/2000/svg" d="m275.682 111.175c-29.317-.072-55.549 18.2-65.643 45.725-1.166 3.107.408 6.57 3.515 7.736s6.57-.408 7.736-3.515c10.861-29.97 43.96-45.46 73.93-34.6s45.46 43.96 34.6 73.93-43.96 45.46-73.93 34.6c-16.585-6.01-29.51-19.274-35.09-36.009-.827-2.425-3.109-4.051-5.671-4.042h-.014c-3.308-.014-6 2.656-6.014 5.963-.003.628.093 1.252.284 1.85 12.045 36.636 51.509 56.572 88.145 44.527s56.572-51.509 44.527-88.145c-9.424-28.666-36.196-48.036-66.372-48.02z" fill="#66a1d3" data-original="#000000" style=""></path></g></svg>