<svg xmlns="http://www.w3.org/2000/svg" xmlns:xlink="http://www.w3.org/1999/xlink" xmlns:svgjs="http://svgjs.com/svgjs" width="512" height="512" x="0" y="0" viewBox="0 0 512 512" style="enable-background:new 0 0 512 512" xml:space="preserve" class=""><g><g xmlns="http://www.w3.org/2000/svg"><path d="m467 161h-79.973c-16.132-91.371-96.099-161-192.027-161-107.523 0-195 87.477-195 195 0 49.121 18.033 95.453 50.971 131.459l-16.311 53.14c-1.665 5.425-.126 11.324 3.976 15.245 2.838 2.713 6.567 4.157 10.366 4.157 1.691 0 3.396-.287 5.042-.875l65.347-23.338c19.282 8.131 39.511 13.025 60.369 14.625v9.693c0 24.813 20.187 45 45 45h187.052l75.457 64.311c2.769 2.359 6.232 3.584 9.733 3.584 2.13 0 4.275-.454 6.284-1.381 5.313-2.453 8.714-7.77 8.714-13.62v-291c0-24.813-20.187-45-45-45zm-347.031 182.654c-1.704 0-3.411.29-5.045.874l-42.811 15.29 10.119-32.969c1.631-5.315.189-11.096-3.748-15.022-31.265-31.184-48.484-72.674-48.484-116.827 0-90.981 74.019-165 165-165s165 74.019 165 165-74.019 165-165 165c-23.993 0-47.131-5.039-68.771-14.978-1.982-.91-4.118-1.368-6.26-1.368zm362.031 120.853-54.932-46.817c-2.714-2.313-6.164-3.584-9.73-3.584h-192.577c-8.271 0-15-6.729-15-15v-9.661c100.655-7.57 180.239-91.887 180.239-194.445 0-1.337-.024-2.669-.051-4h77.051c8.271 0 15 6.729 15 15z" fill="#66a1d3" data-original="#000000" style="" class=""></path><path d="m210.5 290.5v-67.402h7.125c34.597 0 62.744-28.146 62.744-62.744v-23.287c0-1.339 1.131-2.471 2.47-2.471h1.161c8.284 0 15-6.716 15-15s-6.716-15-15-15h-1.16c-17.904 0-32.47 14.566-32.47 32.471v23.287c0 18.055-14.689 32.744-32.744 32.744h-7.126v-72.336c0-8.284-6.716-15-15-15s-15 6.716-15 15v72.336h-7.125c-18.055 0-32.743-14.688-32.743-32.744v-23.287c0-17.904-14.566-32.471-32.471-32.471h-1.161c-8.284 0-15 6.716-15 15s6.716 15 15 15h1.161c1.339 0 2.471 1.131 2.471 2.471v23.287c0 34.597 28.146 62.744 62.743 62.744h7.125v67.402c0 8.284 6.716 15 15 15s15-6.715 15-15z" fill="#66a1d3" data-original="#000000" style="" class=""></path></g></g></svg>